<svg width="98" height="110" viewBox="0 0 98 110" fill="none" xmlns="http://www.w3.org/2000/svg">
<g style="mix-blend-mode:luminosity">
<path d="M0 15.2422C0 11.471 0 9.58533 1.17157 8.41376C2.34315 7.24219 4.22876 7.24219 8 7.24219H34.9347C38.706 7.24219 40.5916 7.24219 41.7632 8.41376C42.9347 9.58533 42.9347 11.471 42.9347 15.2422V42.1769C42.9347 45.9482 42.9347 47.8338 41.7632 49.0053C40.5916 50.1769 38.706 50.1769 34.9347 50.1769H8.00001C4.22877 50.1769 2.34315 50.1769 1.17157 49.0053C0 47.8338 0 45.9482 0 42.1769V15.2422Z" fill="url(#paint0_linear_1067_258)"/>
<path d="M92.0863 38.8163C94.2983 43.873 95.4043 46.4014 94.2201 48.2119C93.0359 50.0225 90.2762 50.0225 84.7568 50.0225L65.1408 50.0225C59.5851 50.0225 56.8072 50.0225 55.6244 48.2005C54.4416 46.3786 55.5722 43.8412 57.8334 38.7665L67.7317 16.5516C70.8972 9.44725 72.48 5.89508 75.0865 5.90395C77.693 5.91282 79.2515 9.47568 82.3686 16.6014L92.0863 38.8163Z" fill="url(#paint1_linear_1067_258)"/>
<path d="M0 62.5871C0 61.1923 1.13074 60.0615 2.52557 60.0615H32.201C38.1291 60.0615 42.9347 64.8672 42.9347 70.7952C42.9347 76.7233 38.1291 81.5289 32.201 81.5289H0V62.5871Z" fill="url(#paint2_linear_1067_258)"/>
<path d="M0 81.5293H21.4674L42.3044 99.7617C42.705 100.112 42.9347 100.619 42.9347 101.151C42.9347 102.17 42.1083 102.997 41.0889 102.997H8.00001C4.22877 102.997 2.34315 102.997 1.17157 101.825C0 100.654 0 98.7679 0 94.9967V81.5293Z" fill="url(#paint3_linear_1067_258)"/>
<path d="M58.1346 71.2362C55.9199 66.1785 54.8126 63.6496 55.9967 61.8385C57.1808 60.0273 59.9415 60.0273 65.4628 60.0273H85.0691C90.6268 60.0273 93.4056 60.0273 94.5884 61.8499C95.7711 63.6724 94.6392 66.2103 92.3753 71.286L82.4819 93.468C79.3165 100.565 77.7338 104.114 75.1284 104.105C72.5229 104.096 70.9644 100.537 67.8474 93.4182L58.1346 71.2362Z" fill="url(#paint4_linear_1067_258)"/>
</g>
<defs>
<linearGradient id="paint0_linear_1067_258" x1="3.00352e-07" y1="50" x2="43" y2="7" gradientUnits="userSpaceOnUse">
<stop stop-color="#DCDCDC"/>
<stop offset="1" stop-color="#888888"/>
</linearGradient>
<linearGradient id="paint1_linear_1067_258" x1="53" y1="50" x2="97" y2="-9.52893e-07" gradientUnits="userSpaceOnUse">
<stop stop-color="#DCDCDC"/>
<stop offset="1" stop-color="#888888"/>
</linearGradient>
<linearGradient id="paint2_linear_1067_258" x1="21" y1="82" x2="43" y2="60.5" gradientUnits="userSpaceOnUse">
<stop stop-color="#DCDCDC"/>
<stop offset="1" stop-color="#888888"/>
</linearGradient>
<linearGradient id="paint3_linear_1067_258" x1="21" y1="82" x2="43" y2="61" gradientUnits="userSpaceOnUse">
<stop stop-color="#DCDCDC"/>
<stop offset="1" stop-color="#B09CDA"/>
</linearGradient>
<linearGradient id="paint4_linear_1067_258" x1="53" y1="110" x2="97" y2="60" gradientUnits="userSpaceOnUse">
<stop stop-color="#DCDCDC"/>
<stop offset="1" stop-color="#888888"/>
</linearGradient>
</defs>
</svg>
