<svg width="72" height="72" viewBox="0 0 72 72" fill="none" xmlns="http://www.w3.org/2000/svg">
<rect y="2" width="32" height="32" rx="2" fill="#B9A8FB" fill-opacity="0.9"/>
<path d="M50.2126 3.56023C50.9507 2.09003 53.0493 2.09003 53.7874 3.56023L67.8659 31.6027C68.5336 32.9326 67.5667 34.5 66.0785 34.5H37.9215C36.4333 34.5 35.4664 32.9326 36.1341 31.6027L50.2126 3.56023Z" fill="#7342C6" fill-opacity="0.9"/>
<path d="M0 38.9697C0 38.4341 0.434148 38 0.969697 38H24C28.4183 38 32 41.5817 32 46C32 50.4183 28.4183 54 24 54H0V38.9697Z" fill="#6C2D87" fill-opacity="0.9"/>
<path d="M0 54H16L31.5302 67.5889C31.8287 67.8502 32 68.2276 32 68.6243C32 69.3841 31.3841 70 30.6243 70H2C0.895431 70 0 69.1046 0 68V54Z" fill="#6C2D87" fill-opacity="0.9"/>
<path d="M53.7874 68.4398C53.0493 69.91 50.9507 69.91 50.2126 68.4398L36.1341 40.3973C35.4664 39.0674 36.4333 37.5 37.9215 37.5L66.0785 37.5C67.5667 37.5 68.5336 39.0674 67.8659 40.3973L53.7874 68.4398Z" fill="#6C4DE6" fill-opacity="0.9"/>
</svg>
