<svg width="1728" height="1117" viewBox="0 0 1728 1117" fill="none" xmlns="http://www.w3.org/2000/svg">
<g clip-path="url(#clip0_1001_25)">
<rect width="1728" height="1117" fill="#121212"/>
<g filter="url(#filter0_f_1001_25)">
<path d="M710.341 805.486C832.108 833.149 792.776 919.019 938.789 902.306C1084.8 885.593 1113.9 770.908 1169.39 712.701C1224.89 654.493 1290.62 693.682 1338.03 712.701C1385.45 731.719 1374.13 731.719 1426.94 712.701C1479.74 693.682 1433.94 649.883 1517.45 596.286C1600.97 542.69 1589.11 595.134 1626.83 578.421C1664.54 561.708 1782 360 1782 360V1153H407C407 1153 588.573 777.823 710.341 805.486Z" fill="#A983DA"/>
<circle cx="364.5" cy="1116.5" r="255.5" fill="#6C76CF"/>
</g>
<g style="mix-blend-mode:overlay" filter="url(#filter1_f_1001_25)">
<path d="M10.5165 703.247C41.939 563.731 150.923 540.89 306.445 520.827C461.966 500.764 652.489 925.484 362.13 995.859C71.7709 1066.24 45.5187 945.548 36.3704 927.028C27.2221 908.508 -20.906 842.763 10.5165 703.247Z" fill="#7A4DC8"/>
<path d="M463.732 656.802C488.117 544.905 699.411 455.689 820.101 439.597C940.79 423.506 1012.67 702.226 787.337 758.669C562.009 815.112 644.689 1057.96 463.732 1095.42C282.775 1132.88 439.347 768.698 463.732 656.802Z" fill="#6FED33"/>
<path d="M531.862 457.746C567.215 318.267 873.551 207.058 1048.53 187.001C1223.5 166.943 1327.71 514.367 1001.03 584.724C674.345 655.081 794.214 957.787 531.862 1004.48C269.51 1051.18 496.509 597.225 531.862 457.746Z" fill="#31C9EB"/>
<path d="M520.955 778.576C565.534 692.146 648.769 523.873 869.409 511.444C1090.05 499.015 1976.15 838.506 1564.22 882.103C1152.28 925.701 1607.53 1085.97 1276.71 1114.9C945.893 1143.84 476.375 865.006 520.955 778.576Z" fill="#4A23E7"/>
<path d="M520.955 778.576C565.534 692.146 648.769 523.873 869.409 511.444C1090.05 499.015 1976.15 838.506 1564.22 882.103C1152.28 925.701 1607.53 1085.97 1276.71 1114.9C945.893 1143.84 476.375 865.006 520.955 778.576Z" fill="#4A23E7"/>
<path d="M945.502 615.727C966.113 515.864 774.045 14.7356 876.056 0.374825C978.068 -13.986 1593.54 388.787 1403.08 439.16C1212.62 489.534 1857.25 816.336 1704.3 849.771C1551.34 883.205 924.891 715.59 945.502 615.727Z" fill="#8C6AC6"/>
<path d="M945.502 615.727C966.113 515.864 774.045 14.7356 876.056 0.374825C978.068 -13.986 1593.54 388.787 1403.08 439.16C1212.62 489.534 1857.25 816.336 1704.3 849.771C1551.34 883.205 924.891 715.59 945.502 615.727Z" fill="#8C6AC6"/>
<path d="M1351.87 233.388C1375.39 57.2816 1456.97 28.4505 1573.38 3.12554C1689.79 -22.1995 1832.41 513.911 1615.06 602.744C1397.72 691.576 1378.07 539.237 1371.22 515.86C1364.38 492.483 1328.35 409.495 1351.87 233.388Z" fill="#8D66CF"/>
</g>
</g>
<defs>
<filter id="filter0_f_1001_25" x="-147" y="104" width="2185" height="1524" filterUnits="userSpaceOnUse" color-interpolation-filters="sRGB">
<feFlood flood-opacity="0" result="BackgroundImageFix"/>
<feBlend mode="normal" in="SourceGraphic" in2="BackgroundImageFix" result="shape"/>
<feGaussianBlur stdDeviation="128" result="effect1_foregroundBlur_1001_25"/>
</filter>
<filter id="filter1_f_1001_25" x="-256" y="-256" width="2240.09" height="1629" filterUnits="userSpaceOnUse" color-interpolation-filters="sRGB">
<feFlood flood-opacity="0" result="BackgroundImageFix"/>
<feBlend mode="normal" in="SourceGraphic" in2="BackgroundImageFix" result="shape"/>
<feGaussianBlur stdDeviation="128" result="effect1_foregroundBlur_1001_25"/>
</filter>
<clipPath id="clip0_1001_25">
<rect width="1728" height="1117" fill="white"/>
</clipPath>
</defs>
</svg>
